<svg xmlns="http://www.w3.org/2000/svg" viewBox="0 0 120 130" fill="white">
  <!-- Background block (cut top-right corner) -->
  <path d="M38 28 L88 28 L108 48 L108 95 L38 95 Z" fill="white" opacity="0.12"/>

  <!-- Head -->
  <rect x="47" y="10" width="26" height="22" rx="1"/>
  <!-- Neck -->
  <rect x="51" y="30" width="18" height="8"/>
  <!-- Body -->
  <rect x="44" y="36" width="32" height="46"/>

  <!-- Left front arm (horizontal) -->
  <rect x="17" y="40" width="28" height="10"/>
  <!-- Left front toes (3-pronged spread) -->
  <rect x="4"  y="30" width="15" height="8"/>
  <rect x="3"  y="39" width="16" height="8"/>
  <rect x="7"  y="47" width="13" height="8"/>

  <!-- Right front arm (horizontal) -->
  <rect x="75" y="40" width="28" height="10"/>
  <!-- Right front toes -->
  <rect x="101" y="30" width="15" height="8"/>
  <rect x="101" y="39" width="16" height="8"/>
  <rect x="100" y="47" width="13" height="8"/>

  <!-- Left rear leg -->
  <rect x="17" y="66" width="28" height="10"/>
  <!-- Left rear toes -->
  <rect x="4"  y="58" width="15" height="8"/>
  <rect x="3"  y="66" width="16" height="8"/>
  <rect x="7"  y="74" width="13" height="8"/>

  <!-- Right rear leg -->
  <rect x="75" y="66" width="28" height="10"/>
  <!-- Right rear toes -->
  <rect x="101" y="58" width="15" height="8"/>
  <rect x="101" y="66" width="16" height="8"/>
  <rect x="100" y="74" width="13" height="8"/>

  <!-- Tail -->
  <rect x="50" y="81" width="20" height="9"/>
  <rect x="51" y="89" width="18" height="8"/>
  <rect x="52" y="96" width="16" height="7"/>
  <rect x="53" y="102" width="14" height="7"/>
  <rect x="54" y="108" width="12" height="6"/>
  <rect x="55" y="113" width="10" height="6"/>
  <rect x="56" y="118" width="8"  height="5"/>
</svg>
